<svg xmlns="http://www.w3.org/2000/svg" viewBox="0 0 256 257">
  <defs>
    <linearGradient id="viteGrad1" x1="100%" x2="0%" y1="0%" y2="100%">
      <stop offset="0%" stop-color="#41D1FF"/>
      <stop offset="100%" stop-color="#BD34FE"/>
    </linearGradient>
    <linearGradient id="viteGrad2" x1="100%" x2="0%" y1="0%" y2="100%">
      <stop offset="0%" stop-color="#FFEA83"/>
      <stop offset="8.333%" stop-color="#FFDD35"/>
      <stop offset="100%" stop-color="#FFA800"/>
    </linearGradient>
  </defs>
  <path fill="url(#viteGrad1)" d="M255.153 37.938L134.897 252.976c-1.483 2.707-5.325 2.72-6.828.023L.875 37.958c-1.606-2.839.583-6.29 3.753-5.916l123.385 14.519a3.41 3.41 0 0 0 1.016-.005l121.37-14.452c3.158-.376 5.363 3.036 3.775 5.872Z"/>
  <path fill="url(#viteGrad2)" d="M185.432.063L96.44 17.501c-2.286.454-3.942 2.41-3.985 4.741l-2.356 130.266a3.63 3.63 0 0 0 4.86 3.455l24.627-7.448c2.347-.71 4.737 1.039 4.595 3.489l-1.459 24.608c-.15 2.533 2.346 4.432 4.733 3.572l15.224-5.477c2.396-.861 4.907 1.027 4.739 3.576l-4.114 63.235c-.19 2.907 3.554 4.279 5.116 1.783l2.467-3.982l76.984-153.588c1.257-2.505-.88-5.39-3.644-4.914l-25.394 4.314c-2.396.407-4.435-1.792-3.759-4.14l16.581-58.795c.676-2.395-1.37-4.684-3.811-4.185Z"/>
</svg>

